<svg id="Layer_1" data-name="Layer 1" xmlns="http://www.w3.org/2000/svg" viewBox="0 0 60 60">
  <defs>
    <style>
      .cls-1 {
        fill: #383838;
        fill-rule: evenodd;
      }
    </style>
  </defs>
  <title>rebuffering</title>
  <polygon fill="#383838" points="45 35.59 42.17 32.76 40.76 34.17 43.59 37 40.76 39.83 42.17 41.24 45 38.41 47.83 41.24 49.24 39.83 46.41 37 49.24 34.17 47.83 32.76 45 35.59" />
  <polygon fill="#383838" points="45 5.59 42.17 2.76 40.76 4.17 43.59 7 40.76 9.83 42.17 11.24 45 8.41 47.83 11.24 49.24 9.83 46.41 7 49.24 4.17 47.83 2.76 45 5.59" />
  <polygon fill="#383838" points="15 35.59 12.17 32.76 10.76 34.17 13.59 37 10.76 39.83 12.17 41.24 15 38.41 17.83 41.24 19.24 39.83 16.41 37 19.24 34.17 17.83 32.76 15 35.59" />
  <polygon fill="#383838" points="15 5.59 12.17 2.76 10.76 4.17 13.59 7 10.76 9.83 12.17 11.24 15 8.41 17.83 11.24 19.24 9.83 16.41 7 19.24 4.17 17.83 2.76 15 5.59" />
  <polygon fill="#383838" points="30 20.59 27.17 17.76 25.76 19.17 28.59 22 25.76 24.83 27.17 26.24 30 23.41 32.83 26.24 34.24 24.83 31.41 22 34.24 19.17 32.83 17.76 30 20.59" />
  <polygon fill="#383838" points="30 50.59 27.17 47.76 25.76 49.17 28.59 52 25.76 54.83 27.17 56.24 30 53.41 32.83 56.24 34.24 54.83 31.41 52 34.24 49.17 32.83 47.76 30 50.59" />
  <polyline fill="#383838" points="0 23.41 2.83 26.24 4.24 24.83 1.41 22 4.24 19.17 2.83 17.76 0 20.59" />
  <polyline fill="#383838" points="0 53.41 2.83 56.24 4.24 54.83 1.41 52 4.24 49.17 2.83 47.76 0 50.59" />
  <polyline fill="#383838" points="60 20.59 57.17 17.76 55.76 19.17 58.59 22 55.76 24.83 57.17 26.24 60 23.41" />
  <polyline fill="#383838" points="60 50.59 57.17 47.76 55.76 49.17 58.59 52 55.76 54.83 57.17 56.24 60 53.41" />
</svg>
