<svg id="Layer_1" data-name="Layer 1" xmlns="http://www.w3.org/2000/svg" viewBox="0 0 60 60">
  <defs>
    <style>
      .cls-1 {
        fill: #383838;
      }
    </style>
  </defs>
  <title>seek-slash</title>
  <polygon fill="#383838" points="16.41 15 19.24 12.17 17.83 10.76 15 13.59 10.76 17.83 12.17 19.24 16.41 15" />
  <polygon fill="#383838" points="28.59 30 25.76 27.17 27.17 25.76 30 28.59 34.24 32.83 32.83 34.24 28.59 30" />
  <polygon fill="#383838" points="28.59 0 25.76 -2.83 27.17 -4.24 30 -1.41 34.24 2.83 32.83 4.24 28.59 0" />
  <polygon fill="#383838" points="-1.41 30 -4.24 27.17 -2.83 25.76 0 28.59 4.24 32.83 2.83 34.24 -1.41 30" />
  <polygon fill="#383838" points="-1.41 0 -4.24 -2.83 -2.83 -4.24 0 -1.41 4.24 2.83 2.83 4.24 -1.41 0" />
  <polygon fill="#383838" points="-1.41 60 -4.24 57.17 -2.83 55.76 0 58.59 4.24 62.83 2.83 64.24 -1.41 60" />
  <polygon fill="#383838" points="28.59 60 25.76 57.17 27.17 55.76 30 58.59 34.24 62.83 32.83 64.24 28.59 60" />
  <polygon fill="#383838" points="58.59 30 55.76 27.17 57.17 25.76 60 28.59 64.24 32.83 62.83 34.24 58.59 30" />
  <polygon fill="#383838" points="58.59 0 55.76 -2.83 57.17 -4.24 60 -1.41 64.24 2.83 62.83 4.24 58.59 0" />
  <polygon fill="#383838" points="58.59 60 55.76 57.17 57.17 55.76 60 58.59 64.24 62.83 62.83 64.24 58.59 60" />
  <polygon fill="#383838" points="46.36 15 49.19 12.17 47.77 10.76 44.94 13.59 40.7 17.83 42.12 19.24 46.36 15" />
  <polygon fill="#383838" points="46.36 45 49.19 42.17 47.77 40.76 44.94 43.59 40.7 47.83 42.12 49.24 46.36 45" />
  <polygon fill="#383838" points="16.41 45 19.24 42.17 17.83 40.76 15 43.59 10.76 47.83 12.17 49.24 16.41 45" />
</svg>
